<svg width="35" height="35" viewBox="0 0 35 35" fill="none" xmlns="http://www.w3.org/2000/svg">
<g id="Group 9" clip-path="url(#clip0_1_1101)">
<path id="Vector" d="M34.8884 17.4371C34.8884 27.0673 27.0814 34.8741 17.4512 34.8741C7.82101 34.8741 0.0141602 27.0673 0.0141602 17.4371C0.0141602 7.80683 7.82101 0 17.4512 0C27.0814 0 34.8884 7.80683 34.8884 17.4371Z" fill="#22253B"/>
<g id="Group">
<path id="Vector_2" d="M21.4011 8.68634H13.2124C10.5473 8.68634 8.37915 10.8545 8.37915 13.5196V21.7084C8.37915 24.3735 10.5473 26.5416 13.2124 26.5416H21.4013C24.0661 26.5416 26.2343 24.3735 26.2343 21.7084V13.5196C26.2343 10.8545 24.0661 8.68634 21.4011 8.68634ZM17.3068 22.4961C14.6147 22.4961 12.4246 20.306 12.4246 17.614C12.4246 14.9219 14.6147 12.7318 17.3068 12.7318C19.9988 12.7318 22.189 14.9219 22.189 17.614C22.189 20.306 19.9988 22.4961 17.3068 22.4961ZM22.3057 13.8832C21.5101 13.8832 20.863 13.2361 20.863 12.4406C20.863 11.645 21.5101 10.9978 22.3057 10.9978C23.1012 10.9978 23.7483 11.645 23.7483 12.4406C23.7483 13.2361 23.1012 13.8832 22.3057 13.8832Z" fill="white"/>
<path id="Vector_3" d="M17.307 13.7787C15.1922 13.7787 13.4716 15.4993 13.4716 17.6141C13.4716 19.7289 15.1922 21.4496 17.307 21.4496C19.4218 21.4496 21.1422 19.7289 21.1422 17.6141C21.1422 15.4993 19.4218 13.7787 17.307 13.7787Z" fill="white"/>
<path id="Vector_4" d="M22.3059 12.0446C22.0876 12.0446 21.91 12.2223 21.91 12.4405C21.91 12.6587 22.0876 12.8364 22.3059 12.8364C22.5241 12.8364 22.702 12.6588 22.702 12.4405C22.702 12.2221 22.5241 12.0446 22.3059 12.0446Z" fill="white"/>
</g>
</g>
<defs>
<clipPath id="clip0_1_1101">
<rect width="35" height="35" fill="white"/>
</clipPath>
</defs>
</svg>
