<svg width="64" height="20" viewBox="0 0 64 20" fill="none" xmlns="http://www.w3.org/2000/svg">
<g id="Logo">
<path id="Union" fill-rule="evenodd" clip-rule="evenodd" d="M23.3838 7.8229V16.9955C23.4964 17.8167 24.4379 19.459 27.303 19.459H31.4249V17.6114H27.303C26.7174 17.6114 25.5461 17.3426 25.5461 16.2677V7.8229H30.4109V5.80731H25.5461V2.43848H23.3838V5.80731H20.4102V7.8229H23.3838Z" fill="black"/>
<path id="Union_2" fill-rule="evenodd" clip-rule="evenodd" d="M55.925 7.8229V16.9955C56.0377 17.8167 56.9792 19.459 59.8442 19.459H63.9662V17.6114H59.8442C59.2586 17.6114 58.0874 17.3426 58.0874 16.2677V7.8229H62.952V5.80731H58.0874V2.43848H55.925V5.80731H52.9513V7.8229H55.925Z" fill="black"/>
<path id="Union_3" fill-rule="evenodd" clip-rule="evenodd" d="M0 0H2.75549L9.12161 9.21119L15.6129 0H18.4332L10.3568 11.4943H7.60134L0 0ZM10.3586 11.4943H7.6077V19.4591H10.3586V11.4943Z" fill="#38BFF2"/>
<path id="Union_4" fill-rule="evenodd" clip-rule="evenodd" d="M32.5417 0H35.2972L41.6634 9.21119L48.1547 0H50.975L42.8986 11.4943H40.1431L32.5417 0ZM42.8995 11.4943H40.1487V19.4591H42.8995V11.4943Z" fill="#F15525"/>
</g>
</svg>
