<svg width="60" height="60" viewBox="0 0 60 60" fill="none" xmlns="http://www.w3.org/2000/svg">
<g id="svg-gobbler (6) 1">
<g id="Group">
<g id="_x34_1_Online_Payment">
<g id="Group_2">
<path id="Vector" d="M39.2664 3.73062V55.9599C39.2664 57.6769 37.8817 59.0688 36.1735 59.0688H8.24778C6.53965 59.0688 5.15497 57.6769 5.15497 55.9599V3.73062C5.15497 2.0136 6.53965 0.621704 8.24778 0.621704H36.1735C37.8817 0.621822 39.2664 2.01372 39.2664 3.73062Z" fill="white"/>
<path id="Vector_2" d="M30.8145 0.621826V3.10394C30.8145 4.47758 29.7068 5.59101 28.3404 5.59101H16.0806C14.714 5.59101 13.6064 4.47746 13.6064 3.10394V0.621826H30.8145Z" fill="#38BFF2"/>
<path id="Vector_3" d="M54.8452 20.5623V40.3721C54.8452 41.7457 53.7374 42.8591 52.371 42.8591H22.2101V18.0751H52.3709C53.7374 18.0751 54.8452 19.1886 54.8452 20.5623Z" fill="#38BFF2"/>
<path id="Vector_4" d="M22.2101 23.1581H54.8452V29.3207H22.2101V23.1581Z" fill="#D7E9FF"/>
<g id="Group_3">
<path id="Vector_5" d="M14.0558 54.7164C13.7142 54.7164 13.4373 54.9945 13.4373 55.3382C13.4373 55.6819 13.7142 55.9599 14.0558 55.9599H30.3651C30.7067 55.9599 30.9837 55.6818 30.9837 55.3382C30.9837 54.9944 30.7067 54.7164 30.3651 54.7164H14.0558Z" fill="#1A2E35"/>
<path id="Vector_6" d="M26.6969 3.72821H27.8014C28.143 3.72821 28.42 3.45009 28.42 3.10648C28.42 2.76286 28.143 2.48474 27.8014 2.48474H26.6969C26.3553 2.48474 26.0784 2.76286 26.0784 3.10648C26.0784 3.45009 26.3553 3.72821 26.6969 3.72821Z" fill="#1A2E35"/>
<path id="Vector_7" d="M16.6195 3.72821H23.7982C24.1398 3.72821 24.4167 3.45009 24.4167 3.10648C24.4167 2.76286 24.1398 2.48474 23.7982 2.48474H16.6195C16.2779 2.48474 16.001 2.76286 16.001 3.10648C16.001 3.45009 16.2779 3.72821 16.6195 3.72821Z" fill="#1A2E35"/>
<path id="Vector_8" d="M52.3707 17.4535H39.8849V3.73065C39.8849 1.67343 38.2201 0 36.1735 0C30.0916 0 14.3337 0 8.24789 0C6.20133 0 4.53656 1.67343 4.53656 3.73065V55.9599C4.53656 58.0171 6.20133 59.6906 8.24789 59.6906H36.1734C38.22 59.6906 39.8848 58.0171 39.8848 55.9599V43.4808H52.3706C54.0759 43.4808 55.4634 42.0861 55.4634 40.3719C55.4634 33.1427 55.4634 27.6816 55.4634 20.5624C55.4635 18.8482 54.0759 17.4535 52.3707 17.4535ZM54.2264 20.5624V22.5365H22.8286V18.6971H52.3707C53.394 18.6971 54.2264 19.5338 54.2264 20.5624ZM54.2264 28.6989H22.8286V23.7799H54.2264V28.6989ZM30.196 1.24359V3.10409C30.196 4.1327 29.3637 4.96941 28.3404 4.96941H16.0807C15.0574 4.96941 14.225 4.1327 14.225 3.10409V1.24359H30.196ZM38.6477 55.96C38.6477 57.3317 37.5377 58.4471 36.1735 58.4471H8.24777C6.88347 58.4471 5.77359 57.3317 5.77359 55.96V3.73065C5.77359 2.35902 6.88359 1.24359 8.24777 1.24359H12.9878V3.10409C12.9878 4.81828 14.3753 6.213 16.0806 6.213H28.3403C30.0456 6.213 31.4331 4.81828 31.4331 3.10409V1.24359H36.1734C37.5377 1.24359 38.6476 2.35902 38.6476 3.73065V17.4535H22.8285V14.6489C22.8285 14.3051 22.5516 14.0271 22.21 14.0271C21.8684 14.0271 21.5914 14.3052 21.5914 14.6489V46.2787C21.5914 46.6224 21.8684 46.9004 22.21 46.9004C22.5516 46.9004 22.8285 46.6223 22.8285 46.2787V43.4807H38.6476V55.96H38.6477ZM52.3707 42.2372H22.8286V34.6374H43.2787C43.6203 34.6374 43.8973 34.3592 43.8973 34.0156C43.8973 33.6719 43.6203 33.3939 43.2787 33.3939H22.8286V29.9425H54.2264V40.3719C54.2264 41.4005 53.394 42.2372 52.3707 42.2372Z" fill="#1A2E35"/>
<path id="Vector_9" d="M43.2788 37.5422H41.5068C41.1652 37.5422 40.8882 37.8204 40.8882 38.164C40.8882 38.5077 41.1652 38.7857 41.5068 38.7857H43.2788C43.6204 38.7857 43.8973 38.5076 43.8973 38.164C43.8973 37.8204 43.6204 37.5422 43.2788 37.5422Z" fill="#1A2E35"/>
<path id="Vector_10" d="M38.2134 37.5422H36.4415C36.0999 37.5422 35.8229 37.8204 35.8229 38.164C35.8229 38.5077 36.0999 38.7857 36.4415 38.7857H38.2134C38.555 38.7857 38.832 38.5076 38.832 38.164C38.832 37.8204 38.555 37.5422 38.2134 37.5422Z" fill="#1A2E35"/>
<path id="Vector_11" d="M33.148 37.5422H31.376C31.0344 37.5422 30.7575 37.8204 30.7575 38.164C30.7575 38.5077 31.0344 38.7857 31.376 38.7857H33.148C33.4896 38.7857 33.7665 38.5076 33.7665 38.164C33.7666 37.8204 33.4896 37.5422 33.148 37.5422Z" fill="#1A2E35"/>
<path id="Vector_12" d="M28.0827 37.5422H26.3107C25.9691 37.5422 25.6922 37.8204 25.6922 38.164C25.6922 38.5077 25.9691 38.7857 26.3107 38.7857H28.0827C28.4243 38.7857 28.7012 38.5076 28.7012 38.164C28.7013 37.8204 28.4243 37.5422 28.0827 37.5422Z" fill="#1A2E35"/>
</g>
</g>
</g>
</g>
</g>
</svg>
