<svg width="49" height="60" viewBox="0 0 49 60" fill="none" xmlns="http://www.w3.org/2000/svg">
<g id="Group">
<g id="_x34_1_Online_Payment">
<g id="Group_2">
<path id="Vector" d="M33.4157 3.75V56.2504C33.4157 57.9764 32.0834 59.3755 30.4399 59.3755H3.57071C1.92722 59.3755 0.594925 57.9764 0.594925 56.2504V3.75C0.594925 2.02406 1.92722 0.624939 3.57071 0.624939H30.4399C32.0834 0.625057 33.4157 2.02418 33.4157 3.75Z" fill="white"/>
<path id="Vector_2" d="M25.2836 0.625549V3.12065C25.2836 4.50148 24.2178 5.62073 22.9031 5.62073H11.1071C9.79228 5.62073 8.72653 4.50136 8.72653 3.12065V0.625549H25.2836Z" fill="#38BFF2"/>
<path id="Vector_3" d="M48.4053 20.6694V40.5817C48.4053 41.9625 47.3394 43.0817 46.0247 43.0817H17.005V18.1694H46.0246C47.3394 18.1694 48.4053 19.2887 48.4053 20.6694Z" fill="#38BFF2"/>
<path id="Vector_4" d="M17.005 23.2786H48.4053V29.4728H17.005V23.2786Z" fill="#D7E9FF"/>
<g id="Group_3">
<path id="Vector_5" d="M9.15894 55.0001C8.83026 55.0001 8.56383 55.2798 8.56383 55.6253C8.56383 55.971 8.83026 56.2506 9.15894 56.2506H24.8512C25.1799 56.2506 25.4463 55.9709 25.4463 55.6253C25.4463 55.2796 25.1799 55.0001 24.8512 55.0001H9.15894Z" fill="#1A2E35"/>
<path id="Vector_6" d="M21.322 3.74837H22.3847C22.7133 3.74837 22.9798 3.46867 22.9798 3.12312C22.9798 2.77756 22.7133 2.49786 22.3847 2.49786H21.322C20.9933 2.49786 20.7269 2.77756 20.7269 3.12312C20.7269 3.46867 20.9933 3.74837 21.322 3.74837Z" fill="#1A2E35"/>
<path id="Vector_7" d="M11.6257 3.74837H18.5327C18.8614 3.74837 19.1278 3.46867 19.1278 3.12312C19.1278 2.77756 18.8614 2.49786 18.5327 2.49786H11.6257C11.297 2.49786 11.0305 2.77756 11.0305 3.12312C11.0305 3.46867 11.297 3.74837 11.6257 3.74837Z" fill="#1A2E35"/>
<path id="Vector_8" d="M46.0243 17.544H34.0109V3.74999C34.0109 1.68211 32.4091 0 30.44 0C24.5882 0 9.42642 0 3.57091 0C1.60178 0 0 1.68211 0 3.74999V56.25C0 58.3179 1.60178 60 3.57091 60H30.4399C32.409 60 34.0108 58.3179 34.0108 56.25V43.7062H46.0242C47.665 43.7062 49 42.3042 49 40.5811C49 33.3145 49 27.8251 49 20.669C49.0001 18.9459 47.665 17.544 46.0243 17.544ZM47.8098 20.669V22.6533H17.5999V18.794H46.0243C47.0089 18.794 47.8098 19.6351 47.8098 20.669ZM47.8098 28.8477H17.5999V23.9032H47.8098V28.8477ZM24.6886 1.25004V3.12018C24.6886 4.15412 23.8877 4.99518 22.9032 4.99518H11.1074C10.1228 4.99518 9.3219 4.15412 9.3219 3.12018V1.25004H24.6886ZM32.8205 56.2501C32.8205 57.6289 31.7525 58.7501 30.44 58.7501H3.57079C2.25812 58.7501 1.19023 57.6289 1.19023 56.2501V3.74999C1.19023 2.37125 2.25823 1.25004 3.57079 1.25004H8.13145V3.12018C8.13145 4.84326 9.46645 6.24521 11.1072 6.24521H22.9031C24.5439 6.24521 25.8789 4.84326 25.8789 3.12018V1.25004H30.4399C31.7525 1.25004 32.8204 2.37125 32.8204 3.74999V17.544H17.5998V14.7248C17.5998 14.3793 17.3334 14.0998 17.0047 14.0998C16.676 14.0998 16.4096 14.3794 16.4096 14.7248V46.5186C16.4096 46.8641 16.676 47.1436 17.0047 47.1436C17.3334 47.1436 17.5998 46.864 17.5998 46.5186V43.7061H32.8204V56.2501H32.8205ZM46.0243 42.4561H17.5999V34.8169H37.2763C37.605 34.8169 37.8714 34.5373 37.8714 34.192C37.8714 33.8464 37.605 33.567 37.2763 33.567H17.5999V30.0977H47.8098V40.5811C47.8098 41.6151 47.0089 42.4561 46.0243 42.4561Z" fill="#1A2E35"/>
<path id="Vector_9" d="M37.2763 37.7369H35.5714C35.2428 37.7369 34.9763 38.0166 34.9763 38.3621C34.9763 38.7078 35.2428 38.9874 35.5714 38.9874H37.2763C37.605 38.9874 37.8714 38.7077 37.8714 38.3621C37.8714 38.0166 37.605 37.7369 37.2763 37.7369Z" fill="#1A2E35"/>
<path id="Vector_10" d="M32.4028 37.7369H30.6978C30.3691 37.7369 30.1027 38.0166 30.1027 38.3621C30.1027 38.7078 30.3691 38.9874 30.6978 38.9874H32.4028C32.7315 38.9874 32.9979 38.7077 32.9979 38.3621C32.9979 38.0166 32.7315 37.7369 32.4028 37.7369Z" fill="#1A2E35"/>
<path id="Vector_11" d="M27.5291 37.7369H25.8242C25.4955 37.7369 25.2291 38.0166 25.2291 38.3621C25.2291 38.7078 25.4955 38.9874 25.8242 38.9874H27.5291C27.8578 38.9874 28.1242 38.7077 28.1242 38.3621C28.1243 38.0166 27.8578 37.7369 27.5291 37.7369Z" fill="#1A2E35"/>
<path id="Vector_12" d="M22.655 37.7369H20.9501C20.6214 37.7369 20.355 38.0166 20.355 38.3621C20.355 38.7078 20.6214 38.9874 20.9501 38.9874H22.655C22.9837 38.9874 23.2502 38.7077 23.2502 38.3621C23.2503 38.0166 22.9837 37.7369 22.655 37.7369Z" fill="#1A2E35"/>
</g>
</g>
</g>
</g>
</svg>
