<svg width="65" height="58" viewBox="0 0 65 58" fill="none" xmlns="http://www.w3.org/2000/svg">
<g id="Group 1195">
<path id="Rectangle 315" d="M0.75 5.99999C0.75 3.1005 3.1005 0.75 6 0.75H44.5263C47.4258 0.75 49.7763 3.1005 49.7763 6V35.2692C49.7763 38.1687 47.4258 40.5192 44.5263 40.5192H19.8177C18.112 40.5192 16.4308 40.9251 14.9131 41.7033L2.57031 48.0316C1.7385 48.4581 0.75 47.8541 0.75 46.9193V41.2692V5.99999Z" fill="white" stroke="#263238" stroke-width="1.5"/>
<path id="Rectangle 318" d="M52.984 13.3846H58C61.3137 13.3846 64 16.0709 64 19.3846V49.4735V54.4895C64 56.0394 62.3134 57.0003 60.9802 56.21L51.9736 50.8712C50.4301 49.9563 48.6688 49.4735 46.8745 49.4735H27.872C24.8809 49.4735 22.4561 47.0488 22.4561 44.0577V44.0577" stroke="#263238" stroke-width="1.5"/>
<rect id="Rectangle 316" x="10.4781" y="12.6346" width="30.693" height="3.73077" rx="1.86538" fill="#38BFF2" stroke="#263238" stroke-width="1.5"/>
<rect id="Rectangle 317" x="10.4781" y="20.4423" width="23.9561" height="3.73077" rx="1.86538" fill="#38BFF2" stroke="#263238" stroke-width="1.5"/>
</g>
</svg>
