<svg width="91" height="90" viewBox="0 0 91 90" fill="none" xmlns="http://www.w3.org/2000/svg">
<g id="svg-gobbler (1) 2">
<g id="Group">
<g id="_x34_5_Megaphone">
<g id="Group_2">
<path id="Vector" d="M89.5927 44.2841C89.5927 51.1803 83.9496 56.7614 76.9768 56.7614V31.7714C83.9498 31.7712 89.5927 37.3701 89.5927 44.2841Z" fill="white"/>
<path id="Vector_2" d="M73.7904 6.10175C72.0304 6.10175 70.6038 7.51274 70.6038 9.25333V79.2793C70.6038 81.0199 72.0304 82.4309 73.7904 82.4309C75.5503 82.4309 76.977 81.0199 76.977 79.2793V9.25333C76.977 7.51274 75.5503 6.10175 73.7904 6.10175Z" fill="white"/>
<path id="Vector_3" d="M70.6069 11.5258V77.0066C63.5175 64.292 46.33 56.8443 32.3932 56.1604V32.3724C46.33 31.6883 63.5175 24.2408 70.6069 11.5258Z" fill="#38BFF2"/>
<path id="Vector_4" d="M32.3889 32.3691V56.1667C32.3889 57.577 31.2329 58.7203 29.8069 58.7203H9.79636C8.3704 58.7203 7.21442 57.577 7.21442 56.1667V32.3691C7.21442 30.9588 8.3704 29.8155 9.79636 29.8155H29.8069C31.2329 29.8153 32.3889 30.9588 32.3889 32.3691Z" fill="white"/>
<path id="Vector_5" d="M3.78063 35.4525H7.21464V53.0828H3.78063C2.46771 53.0828 1.40717 52.0341 1.40717 50.7354V37.7998C1.40734 36.5013 2.46771 35.4525 3.78063 35.4525Z" fill="#38BFF2"/>
<path id="Vector_6" d="M25.5081 27.3407V29.8115H14.1004V27.3407C14.1004 25.987 15.21 24.8898 16.5786 24.8898H23.0301C24.3987 24.8898 25.5081 25.987 25.5081 27.3407Z" fill="white"/>
<path id="Vector_7" d="M18.3906 82.6906L25.8401 58.7202H13.7632V82.1882C13.7632 83.1327 14.5375 83.8984 15.4924 83.8984H16.7378C17.4969 83.8982 18.1673 83.4085 18.3906 82.6906Z" fill="#38BFF2"/>
<g id="Group_3">
<path id="Vector_8" d="M90.531 44.2842C90.531 37.1872 84.9508 31.3719 77.9156 30.8904V9.25295C77.9156 7.004 76.065 5.17377 73.7902 5.17377C71.5162 5.17377 69.6657 7.004 69.6657 9.25295V11.2801C62.763 23.4084 46.2954 30.4963 33.1688 31.3933C32.7389 29.9508 31.4028 28.8879 29.8071 28.8879H26.4467V27.3403C26.4467 25.4774 24.9139 23.9614 23.0303 23.9614H16.5787C14.6951 23.9614 13.1623 25.4774 13.1623 27.3403V28.8879H9.79656C7.85605 28.8879 6.2767 30.4501 6.2767 32.3691V34.5247H3.78096C1.95509 34.5247 0.469055 35.9944 0.469055 37.8002V50.7356C0.469055 52.5414 1.95509 54.0102 3.78096 54.0102H6.27653V56.1667C6.27653 58.0859 7.85605 59.6478 9.79638 59.6478H12.8253V82.1886C12.8253 83.6429 14.0218 84.8262 15.4922 84.8262H16.7373C17.9164 84.8262 18.9406 84.0778 19.2869 82.9633L26.5334 59.6478H29.8071C31.4037 59.6478 32.7406 58.5837 33.1695 57.1398C46.2959 58.037 62.7639 65.125 69.6653 77.252V79.2791C69.6653 81.528 71.5159 83.3583 73.7898 83.3583C76.0646 83.3583 77.9152 81.528 77.9152 79.2791V57.6418C84.9508 57.1618 90.531 51.362 90.531 44.2842ZM15.0387 27.3403C15.0387 26.5004 15.7295 25.8172 16.5787 25.8172H23.0303C23.8795 25.8172 24.5704 26.5004 24.5704 27.3403V28.8833H15.0387V27.3403ZM3.78096 52.1545C2.98933 52.1545 2.3454 51.5174 2.3454 50.7356V37.8002C2.3454 37.0172 2.98951 36.3804 3.78096 36.3804H6.27653V52.1545H3.78096ZM17.4932 82.4178V82.4187C17.3906 82.7485 17.0872 82.9705 16.7373 82.9705H15.4922C15.0561 82.9705 14.7017 82.6198 14.7017 82.1886V59.6478H24.5706L17.4932 82.4178ZM31.4508 56.1667C31.4508 57.0628 30.7134 57.7921 29.8073 57.7921C22.7374 57.7921 16.8702 57.7921 9.79656 57.7921C8.89047 57.7921 8.15305 57.0628 8.15305 56.1667C8.15305 50.1806 8.15305 38.3551 8.15305 32.3692C8.15305 31.4731 8.89047 30.7438 9.79656 30.7438H29.8073C30.7134 30.7438 31.4508 31.4731 31.4508 32.3692V56.1667ZM33.3316 55.2869V33.2462C46.0185 32.3655 61.7257 25.8787 69.6655 14.754V73.778C61.7268 62.6544 46.0186 56.1665 33.3316 55.2869ZM76.0392 79.2791C76.0392 80.505 75.0306 81.5026 73.79 81.5026C72.5505 81.5026 71.5418 80.505 71.5418 79.2791C71.5465 -6.8444 71.5418 15.5289 71.5418 9.25295C71.5418 8.02705 72.5505 7.02949 73.79 7.02949C75.0304 7.02949 76.0392 8.02705 76.0392 9.25295V79.2791ZM77.9154 55.7961V32.7361C83.9171 33.2109 88.6546 38.2089 88.6546 44.2842C88.6546 50.3404 83.9171 55.3222 77.9154 55.7961Z" fill="#1A2E35"/>
<path id="Vector_9" d="M28.0327 33.5135H11.5711C11.0524 33.5135 10.633 33.9286 10.633 34.4413C10.633 34.9541 11.0526 35.3691 11.5711 35.3691H28.0327C28.5513 35.3691 28.9707 34.9541 28.9707 34.4413C28.9707 33.9286 28.5511 33.5135 28.0327 33.5135Z" fill="#1A2E35"/>
<path id="Vector_10" d="M28.0327 38.4272H11.5711C11.0524 38.4272 10.633 38.8422 10.633 39.355C10.633 39.8677 11.0526 40.2827 11.5711 40.2827H28.0327C28.5513 40.2827 28.9707 39.8677 28.9707 39.355C28.9707 38.8422 28.5511 38.4272 28.0327 38.4272Z" fill="#1A2E35"/>
<path id="Vector_11" d="M28.0327 43.3401H11.5711C11.0524 43.3401 10.633 43.7551 10.633 44.2679C10.633 44.7806 11.0526 45.1956 11.5711 45.1956H28.0327C28.5513 45.1956 28.9707 44.7806 28.9707 44.2679C28.9707 43.7551 28.5511 43.3401 28.0327 43.3401Z" fill="#1A2E35"/>
<path id="Vector_12" d="M28.0327 48.2528H11.5711C11.0524 48.2528 10.633 48.6678 10.633 49.1806C10.633 49.6935 11.0526 50.1084 11.5711 50.1084H28.0327C28.5513 50.1084 28.9707 49.6933 28.9707 49.1806C28.9707 48.6678 28.5511 48.2528 28.0327 48.2528Z" fill="#1A2E35"/>
<path id="Vector_13" d="M28.0327 53.1657H11.5711C11.0524 53.1657 10.633 53.5807 10.633 54.0935C10.633 54.6064 11.0526 55.0213 11.5711 55.0213H28.0327C28.5513 55.0213 28.9707 54.6062 28.9707 54.0935C28.9707 53.5806 28.5511 53.1657 28.0327 53.1657Z" fill="#1A2E35"/>
</g>
</g>
</g>
</g>
</g>
</svg>
