<svg width="61" height="60" viewBox="0 0 61 60" fill="none" xmlns="http://www.w3.org/2000/svg">
<g id="svg-gobbler (5) 2" clip-path="url(#clip0_1_1019)">
<g id="Group">
<g id="_x31_1_Russian_Ruble">
<g id="Group_2">
<g id="Group_3">
<g id="Group_4">
<path id="Vector" d="M50.9608 50.7682C62.4757 39.2982 62.4757 20.7018 50.9608 9.23185C39.4459 -2.23809 20.7765 -2.23809 9.26158 9.23185C-2.25333 20.7018 -2.25333 39.2982 9.26158 50.7682C20.7765 62.2381 39.4459 62.2381 50.9608 50.7682Z" fill="#38BFF2"/>
</g>
<g id="Group_5">
<path id="Vector_2" d="M30.1177 53.1249C42.9393 53.1249 53.3333 42.7715 53.3333 30C53.3333 17.2284 42.9393 6.875 30.1177 6.875C17.296 6.875 6.90201 17.2284 6.90201 30C6.90201 42.7715 17.296 53.1249 30.1177 53.1249Z" fill="white"/>
</g>
</g>
<g id="Group_6">
<path id="Vector_3" d="M30.1176 0C13.5107 0 0 13.4579 0 30C0 46.5421 13.5107 60 30.1176 60C46.7246 60 60.2353 46.5421 60.2353 30C60.2353 13.4579 46.7246 0 30.1176 0ZM30.1176 58.75C14.2028 58.75 1.25494 45.8527 1.25494 30C1.25494 14.1473 14.2028 1.25004 30.1176 1.25004C46.0325 1.25004 58.9804 14.1473 58.9804 30C58.9804 45.8527 46.0325 58.75 30.1176 58.75Z" fill="#1A2E35"/>
<path id="Vector_4" d="M30.1176 6.24994C16.9706 6.24994 6.27447 16.9043 6.27447 30C6.27447 43.0957 16.9706 53.75 30.1176 53.75C43.2647 53.75 53.9608 43.0957 53.9608 30C53.9608 16.9043 43.2647 6.24994 30.1176 6.24994ZM30.1176 52.5C17.6623 52.5 7.52941 42.4066 7.52941 30C7.52941 17.5933 17.6623 7.49998 30.1176 7.49998C42.5729 7.49998 52.7059 17.5933 52.7059 30C52.7059 42.4066 42.5729 52.5 30.1176 52.5Z" fill="#1A2E35"/>
<path id="Vector_5" d="M32.6299 16.4896H24.2852C24.2746 16.489 24.2656 16.4835 24.2548 16.4835C23.9084 16.4835 23.6274 16.7633 23.6274 17.1084V17.1145V29.0658H21.2926C20.9461 29.0658 20.6652 29.3456 20.6652 29.6907C20.6652 30.0358 20.9461 30.3157 21.2926 30.3157H23.6274V32.9613H21.2926C20.9461 32.9613 20.6652 33.2412 20.6652 33.5863C20.6652 33.9314 20.9461 34.2112 21.2926 34.2112H23.6274V42.8913C23.6274 43.2364 23.9084 43.5163 24.2548 43.5163C24.6013 43.5163 24.8822 43.2364 24.8822 42.8913V34.2112H36.2048C36.5513 34.2112 36.8322 33.9314 36.8322 33.5863C36.8322 33.2412 36.5513 32.9613 36.2048 32.9613H24.8824V30.3157H25.94H32.1906C36.0386 30.3157 39.2708 27.5233 39.5487 23.9586C39.5487 23.9583 39.5487 23.9583 39.5487 23.9583C39.8714 19.8146 36.5872 16.4896 32.6299 16.4896ZM38.2975 23.8619V23.8616C38.0702 26.78 35.3877 29.0658 32.1906 29.0658H25.94H24.8824V17.7395H32.6299C35.8704 17.7396 38.5627 20.4588 38.2975 23.8619Z" fill="#1A2E35"/>
</g>
</g>
</g>
</g>
</g>
<defs>
<clipPath id="clip0_1_1019">
<rect width="60.2353" height="60" fill="white"/>
</clipPath>
</defs>
</svg>
