<svg width="60" height="60" viewBox="0 0 60 60" fill="none" xmlns="http://www.w3.org/2000/svg">
<g id="svg-gobbler 2" clip-path="url(#clip0_1_1033)">
<g id="Group">
<g id="_x31_0_Wireframe">
<g id="Group_2">
<path id="Vector" d="M59.3734 3.12527V11.1814H0.625305V3.12527C0.625305 1.74456 1.74456 0.625305 3.12527 0.625305H56.8734C58.2541 0.625305 59.3734 1.74456 59.3734 3.12527Z" fill="#38BFF2"/>
<path id="Vector_2" d="M59.3747 11.1815V56.8746C59.3747 58.2558 58.256 59.3746 56.8747 59.3746H3.12527C1.74398 59.3746 0.625305 58.2558 0.625305 56.8746V11.1815H59.3747Z" fill="white"/>
<path id="Vector_3" d="M54.9997 28.3565V16.8062C54.9997 16.1158 54.44 15.5562 53.7497 15.5562H6.25028C5.55993 15.5562 5.00024 16.1158 5.00024 16.8062V28.3565C5.00024 29.0469 5.55993 29.6066 6.25028 29.6066H53.7498C54.44 29.6065 54.9997 29.0468 54.9997 28.3565Z" fill="#38BFF2"/>
<path id="Vector_4" d="M27.8375 5.90342C27.8375 6.72326 27.173 7.38783 26.3531 7.38783H5.8596C5.03975 7.38783 4.37518 6.72326 4.37518 5.90342C4.37518 5.08358 5.03975 4.41901 5.8596 4.41901H26.3531C27.173 4.41901 27.8375 5.08358 27.8375 5.90342Z" fill="white"/>
<path id="Vector_5" d="M54.0955 7.43132C54.9394 7.43132 55.6235 6.74721 55.6235 5.90331C55.6235 5.05942 54.9394 4.37531 54.0955 4.37531C53.2516 4.37531 52.5675 5.05942 52.5675 5.90331C52.5675 6.74721 53.2516 7.43132 54.0955 7.43132Z" fill="white"/>
<path id="Vector_6" d="M47.9549 7.43132C48.7988 7.43132 49.4829 6.74721 49.4829 5.90331C49.4829 5.05942 48.7988 4.37531 47.9549 4.37531C47.111 4.37531 46.4269 5.05942 46.4269 5.90331C46.4269 6.74721 47.111 7.43132 47.9549 7.43132Z" fill="white"/>
<path id="Vector_7" d="M41.8143 7.43132C42.6582 7.43132 43.3423 6.74721 43.3423 5.90331C43.3423 5.05942 42.6582 4.37531 41.8143 4.37531C40.9704 4.37531 40.2863 5.05942 40.2863 5.90331C40.2863 6.74721 40.9704 7.43132 41.8143 7.43132Z" fill="white"/>
<path id="Vector_8" d="M36.8749 43.2566V35.2312C36.8749 34.5409 36.3152 33.9812 35.6249 33.9812H24.375C23.6846 33.9812 23.1249 34.5409 23.1249 35.2312V43.2566C23.1249 43.9469 23.6846 44.5066 24.375 44.5066H35.6249C36.3152 44.5065 36.8749 43.9469 36.8749 43.2566Z" fill="#38BFF2"/>
<path id="Vector_9" d="M18.7501 43.2566V35.2312C18.7501 34.5409 18.1904 33.9812 17.5 33.9812H6.25028C5.55993 33.9812 5.00024 34.5409 5.00024 35.2312V43.2566C5.00024 43.9469 5.55993 44.5066 6.25028 44.5066H17.5002C18.1905 44.5065 18.7501 43.9469 18.7501 43.2566Z" fill="#38BFF2"/>
<path id="Vector_10" d="M54.9997 43.2566V35.2312C54.9997 34.5409 54.44 33.9812 53.7497 33.9812H42.4998C41.8094 33.9812 41.2498 34.5409 41.2498 35.2312V43.2566C41.2498 43.9469 41.8094 44.5066 42.4998 44.5066H53.7497C54.44 44.5065 54.9997 43.9469 54.9997 43.2566Z" fill="#38BFF2"/>
<g id="Group_3">
<path id="Vector_11" d="M59.9985 3.12529C59.9985 1.40228 58.5966 0.000366211 56.8736 0.000366211H3.12529C1.40228 0.000366211 0.000366211 1.40228 0.000366211 3.12529V56.8746C0.000366211 58.5976 1.40228 59.9995 3.12529 59.9995H56.8746C58.5976 59.9995 59.9995 58.5976 59.9995 56.8746C59.9997 56.2906 59.9986 10.0089 59.9985 3.12529ZM1.25041 3.12529C1.25041 2.09134 2.09146 1.25029 3.12541 1.25029H56.8735C57.9074 1.25029 58.7485 2.09134 58.7485 3.12529V10.5563H1.25041V3.12529ZM56.8747 58.7497H3.12529C2.09134 58.7497 1.25029 57.9087 1.25029 56.8747V11.8063H58.7496V56.8747C58.7497 57.9087 57.9087 58.7497 56.8747 58.7497Z" fill="#1A2E35"/>
<path id="Vector_12" d="M53.7497 14.9312H6.25031C5.21636 14.9312 4.37531 15.7723 4.37531 16.8062V28.3563C4.37531 29.3903 5.21636 30.2313 6.25031 30.2313H53.7498C54.7837 30.2313 55.6248 29.3903 55.6248 28.3563V16.8062C55.6247 15.7723 54.7836 14.9312 53.7497 14.9312ZM54.3748 28.3563C54.3748 28.7012 54.0946 28.9813 53.7498 28.9813H6.25031C5.90542 28.9813 5.62534 28.7011 5.62534 28.3563V16.8062C5.62534 16.4613 5.90554 16.1813 6.25031 16.1813H53.7498C54.0947 16.1813 54.3748 16.4614 54.3748 16.8062V28.3563Z" fill="#1A2E35"/>
<path id="Vector_13" d="M26.3533 3.79431H5.85962C4.6963 3.79431 3.75024 4.74037 3.75024 5.90369C3.75024 7.06701 4.6963 8.01306 5.85962 8.01306H26.3531C27.5165 8.01306 28.4625 7.06701 28.4625 5.90369C28.4625 4.74037 27.5166 3.79431 26.3533 3.79431ZM26.3533 6.76302H5.85962C5.38595 6.76302 5.00028 6.37724 5.00028 5.90369C5.00028 5.43013 5.38606 5.04435 5.85962 5.04435H26.3531C26.8268 5.04435 27.2125 5.43013 27.2125 5.90369C27.2125 6.37724 26.8268 6.76302 26.3533 6.76302Z" fill="#1A2E35"/>
<path id="Vector_14" d="M54.0951 3.75037C52.908 3.75037 51.9424 4.71658 51.9424 5.90369C51.9424 7.0908 52.908 8.05642 54.0951 8.05642C55.2822 8.05642 56.2485 7.09091 56.2485 5.90369C56.2485 4.71646 55.2822 3.75037 54.0951 3.75037ZM54.0951 6.80627C53.5971 6.80627 53.1924 6.40162 53.1924 5.90357C53.1924 5.40552 53.5971 5.00029 54.0951 5.00029C54.5932 5.00029 54.9984 5.40552 54.9984 5.90357C54.9984 6.40162 54.5932 6.80627 54.0951 6.80627Z" fill="#1A2E35"/>
<path id="Vector_15" d="M47.9551 3.75037C46.768 3.75037 45.8018 4.71658 45.8018 5.90369C45.8018 7.0908 46.768 8.05642 47.9551 8.05642C49.1422 8.05642 50.1078 7.09091 50.1078 5.90369C50.1078 4.71646 49.1422 3.75037 47.9551 3.75037ZM47.9551 6.80627C47.457 6.80627 47.0518 6.40162 47.0518 5.90357C47.0518 5.40552 47.457 5.00029 47.9551 5.00029C48.4531 5.00029 48.8578 5.40552 48.8578 5.90357C48.8578 6.40162 48.4531 6.80627 47.9551 6.80627Z" fill="#1A2E35"/>
<path id="Vector_16" d="M41.8145 3.75037C40.6273 3.75037 39.6611 4.71658 39.6611 5.90369C39.6611 7.0908 40.6273 8.05642 41.8145 8.05642C43.0016 8.05642 43.9672 7.09091 43.9672 5.90369C43.9672 4.71646 43.0016 3.75037 41.8145 3.75037ZM41.8145 6.80627C41.3164 6.80627 40.9112 6.40162 40.9112 5.90357C40.9112 5.40552 41.3164 5.00029 41.8145 5.00029C42.3125 5.00029 42.7171 5.40552 42.7171 5.90357C42.7171 6.40162 42.3124 6.80627 41.8145 6.80627Z" fill="#1A2E35"/>
<path id="Vector_17" d="M18.7501 48.256H5.00027C4.6548 48.256 4.37531 48.5355 4.37531 48.881C4.37531 49.2265 4.6548 49.506 5.00027 49.506H18.7501C19.0956 49.506 19.3751 49.2265 19.3751 48.881C19.3751 48.5355 19.0956 48.256 18.7501 48.256Z" fill="#1A2E35"/>
<path id="Vector_18" d="M18.7501 54.3748H5.00027C4.6548 54.3748 4.37531 54.6542 4.37531 54.9997C4.37531 55.3452 4.6548 55.6247 5.00027 55.6247H18.7501C19.0956 55.6247 19.3751 55.3452 19.3751 54.9997C19.3751 54.6542 19.0956 54.3748 18.7501 54.3748Z" fill="#1A2E35"/>
<path id="Vector_19" d="M18.7501 51.3157H5.00027C4.6548 51.3157 4.37531 51.5952 4.37531 51.9406C4.37531 52.2861 4.6548 52.5656 5.00027 52.5656H18.7501C19.0956 52.5656 19.3751 52.2861 19.3751 51.9406C19.3751 51.5952 19.0956 51.3157 18.7501 51.3157Z" fill="#1A2E35"/>
<path id="Vector_20" d="M36.8749 48.256H23.1251C22.7796 48.256 22.5001 48.5355 22.5001 48.881C22.5001 49.2265 22.7796 49.506 23.1251 49.506H36.8749C37.2204 49.506 37.4999 49.2265 37.4999 48.881C37.4999 48.5355 37.2204 48.256 36.8749 48.256Z" fill="#1A2E35"/>
<path id="Vector_21" d="M36.8749 54.3748H23.1251C22.7796 54.3748 22.5001 54.6542 22.5001 54.9997C22.5001 55.3452 22.7796 55.6247 23.1251 55.6247H36.8749C37.2204 55.6247 37.4999 55.3452 37.4999 54.9997C37.4999 54.6542 37.2204 54.3748 36.8749 54.3748Z" fill="#1A2E35"/>
<path id="Vector_22" d="M36.8749 51.3157H23.1251C22.7796 51.3157 22.5001 51.5952 22.5001 51.9406C22.5001 52.2861 22.7796 52.5656 23.1251 52.5656H36.8749C37.2204 52.5656 37.4999 52.2861 37.4999 51.9406C37.4999 51.5952 37.2204 51.3157 36.8749 51.3157Z" fill="#1A2E35"/>
<path id="Vector_23" d="M54.9997 48.256H41.2498C40.9044 48.256 40.6249 48.5355 40.6249 48.881C40.6249 49.2265 40.9044 49.506 41.2498 49.506H54.9997C55.3452 49.506 55.6246 49.2265 55.6246 48.881C55.6246 48.5355 55.3452 48.256 54.9997 48.256Z" fill="#1A2E35"/>
<path id="Vector_24" d="M54.9997 54.3748H41.2498C40.9044 54.3748 40.6249 54.6542 40.6249 54.9997C40.6249 55.3452 40.9044 55.6247 41.2498 55.6247H54.9997C55.3452 55.6247 55.6246 55.3452 55.6246 54.9997C55.6246 54.6542 55.3452 54.3748 54.9997 54.3748Z" fill="#1A2E35"/>
<path id="Vector_25" d="M54.9997 51.3157H41.2498C40.9044 51.3157 40.6249 51.5952 40.6249 51.9406C40.6249 52.2861 40.9044 52.5656 41.2498 52.5656H54.9997C55.3452 52.5656 55.6246 52.2861 55.6246 51.9406C55.6246 51.5952 55.3452 51.3157 54.9997 51.3157Z" fill="#1A2E35"/>
<path id="Vector_26" d="M35.6249 33.3563H24.375C23.3411 33.3563 22.5 34.1973 22.5 35.2313V43.2567C22.5 44.2907 23.3411 45.1317 24.375 45.1317H35.6249C36.6588 45.1317 37.4999 44.2907 37.4999 43.2567V35.2313C37.4999 34.1973 36.6588 33.3563 35.6249 33.3563ZM36.25 43.2567C36.25 43.6016 35.9698 43.8817 35.625 43.8817H24.3751C24.0302 43.8817 23.7502 43.6015 23.7502 43.2567V35.2313C23.7502 34.8864 24.0304 34.6063 24.3751 34.6063H35.625C35.9699 34.6063 36.25 34.8865 36.25 35.2313V43.2567Z" fill="#1A2E35"/>
<path id="Vector_27" d="M17.5002 33.3563H6.25031C5.21636 33.3563 4.37531 34.1973 4.37531 35.2313V43.2567C4.37531 44.2907 5.21636 45.1317 6.25031 45.1317H17.5002C18.5341 45.1317 19.3752 44.2907 19.3752 43.2567V35.2313C19.3751 34.1973 18.534 33.3563 17.5002 33.3563ZM18.1251 43.2567C18.1251 43.6016 17.845 43.8817 17.5002 43.8817H6.25031C5.90542 43.8817 5.62534 43.6015 5.62534 43.2567V35.2313C5.62534 34.8864 5.90554 34.6063 6.25031 34.6063H17.5002C17.8451 34.6063 18.1251 34.8865 18.1251 35.2313V43.2567Z" fill="#1A2E35"/>
<path id="Vector_28" d="M53.7497 33.3563H42.4998C41.4659 33.3563 40.6248 34.1973 40.6248 35.2313V43.2567C40.6248 44.2907 41.4659 45.1317 42.4998 45.1317H53.7497C54.7836 45.1317 55.6247 44.2907 55.6247 43.2567V35.2313C55.6247 34.1973 54.7836 33.3563 53.7497 33.3563ZM54.3748 43.2567C54.3748 43.6016 54.0946 43.8817 53.7498 43.8817H42.4999C42.155 43.8817 41.875 43.6015 41.875 43.2567V35.2313C41.875 34.8864 42.1552 34.6063 42.4999 34.6063H53.7498C54.0947 34.6063 54.3748 34.8865 54.3748 35.2313V43.2567Z" fill="#1A2E35"/>
</g>
</g>
</g>
</g>
</g>
<defs>
<clipPath id="clip0_1_1033">
<rect width="60" height="60" fill="white"/>
</clipPath>
</defs>
</svg>
