<svg width="59" height="59" viewBox="0 0 59 59" fill="none" xmlns="http://www.w3.org/2000/svg">
<g id="svg-gobbler (5) 1" clip-path="url(#clip0_1_879)">
<g id="Group">
<g id="_x31_1_Russian_Ruble">
<g id="Group_2">
<g id="Group_3">
<g id="Group_4">
<path id="Vector" d="M49.9157 49.9221C61.1944 38.6433 61.1944 20.3568 49.9157 9.07804C38.6369 -2.20073 20.3504 -2.20072 9.07164 9.07804C-2.20713 20.3568 -2.20713 38.6433 9.07164 49.9221C20.3504 61.2008 38.6369 61.2008 49.9157 49.9221Z" fill="#38BFF2"/>
</g>
<g id="Group_5">
<path id="Vector_2" d="M29.5 52.2396C42.0587 52.2396 52.2395 42.0588 52.2395 29.5C52.2395 16.9413 42.0587 6.7605 29.5 6.7605C16.9413 6.7605 6.76045 16.9413 6.76045 29.5C6.76045 42.0588 16.9413 52.2396 29.5 52.2396Z" fill="white"/>
</g>
</g>
<g id="Group_6">
<path id="Vector_3" d="M29.5 0C13.2336 0 0 13.2336 0 29.5C0 45.7664 13.2336 59 29.5 59C45.7664 59 59 45.7664 59 29.5C59 13.2336 45.7664 0 29.5 0ZM29.5 57.7708C13.9116 57.7708 1.22921 45.0884 1.22921 29.5C1.22921 13.9116 13.9116 1.22921 29.5 1.22921C45.0884 1.22921 57.7708 13.9116 57.7708 29.5C57.7708 45.0884 45.0884 57.7708 29.5 57.7708Z" fill="#1A2E35"/>
<path id="Vector_4" d="M29.5 6.14575C16.6226 6.14575 6.14579 16.6225 6.14579 29.5C6.14579 42.3774 16.6226 52.8542 29.5 52.8542C42.3774 52.8542 52.8542 42.3774 52.8542 29.5C52.8542 16.6225 42.3774 6.14575 29.5 6.14575ZM29.5 51.625C17.3001 51.625 7.375 41.6998 7.375 29.5C7.375 17.3001 17.3001 7.37496 29.5 7.37496C41.6999 7.37496 51.625 17.3001 51.625 29.5C51.625 41.6998 41.6999 51.625 29.5 51.625Z" fill="#1A2E35"/>
<path id="Vector_5" d="M31.9607 16.2147H23.7871C23.7768 16.2142 23.768 16.2087 23.7574 16.2087C23.418 16.2087 23.1429 16.4839 23.1429 16.8233V16.8293V28.5813H20.8559C20.5166 28.5813 20.2414 28.8565 20.2414 29.1959C20.2414 29.5352 20.5166 29.8104 20.8559 29.8104H23.1429V32.412H20.8559C20.5166 32.412 20.2414 32.6871 20.2414 33.0265C20.2414 33.3659 20.5166 33.641 20.8559 33.641H23.1429V42.1765C23.1429 42.5158 23.418 42.791 23.7574 42.791C24.0968 42.791 24.372 42.5158 24.372 42.1765V33.641H35.4623C35.8017 33.641 36.0769 33.3659 36.0769 33.0265C36.0769 32.6871 35.8017 32.412 35.4623 32.412H24.3721V29.8104H25.408H31.5304C35.2995 29.8104 38.4655 27.0646 38.7377 23.5593C38.7377 23.559 38.7377 23.559 38.7377 23.559C39.0537 19.4844 35.8369 16.2147 31.9607 16.2147ZM37.5121 23.4642V23.4639C37.2895 26.3337 34.6619 28.5813 31.5304 28.5813H25.408H24.3721V17.4438H31.9607C35.1347 17.4439 37.7719 20.1178 37.5121 23.4642Z" fill="#1A2E35"/>
</g>
</g>
</g>
</g>
</g>
<defs>
<clipPath id="clip0_1_879">
<rect width="59" height="59" fill="white"/>
</clipPath>
</defs>
</svg>
