<svg width="59" height="59" viewBox="0 0 59 59" fill="none" xmlns="http://www.w3.org/2000/svg">
<g id="svg-gobbler 1" clip-path="url(#clip0_1_821)">
<g id="Group">
<g id="_x30_5_Web_Coding">
<g id="Group_2">
<path id="Vector" d="M58.0876 11.9033V55.4112C58.0876 56.8953 56.8894 58.0875 55.4053 58.0875H3.59476C2.11065 58.0875 0.912445 56.8953 0.912445 55.4112V11.9033H58.0876Z" fill="white"/>
<path id="Vector_2" d="M58.0876 3.59466V11.9033H0.912445V3.59466C0.912445 2.11056 2.11065 0.912354 3.59476 0.912354H55.4053C56.8894 0.912354 58.0876 2.11056 58.0876 3.59466Z" fill="#38BFF2"/>
<g id="Group_3">
<path id="Vector_3" d="M8.25746 6.40504C8.25746 7.1793 7.62909 7.80778 6.85471 7.80778C6.08034 7.80778 5.45197 7.17941 5.45197 6.40504C5.45197 5.63066 6.08034 5.00793 6.85471 5.00793C7.62909 5.00793 8.25746 5.63078 8.25746 6.40504Z" fill="#D7E9FF"/>
<path id="Vector_4" d="M14.1887 6.40504C14.1887 7.1793 13.5603 7.80778 12.7859 7.80778C12.0116 7.80778 11.3832 7.17941 11.3832 6.40504C11.3832 5.63066 12.0116 5.00793 12.7859 5.00793C13.5603 5.00793 14.1887 5.63078 14.1887 6.40504Z" fill="#D7E9FF"/>
<path id="Vector_5" d="M20.12 6.40504C20.12 7.1793 19.4917 7.80778 18.7173 7.80778C17.9429 7.80778 17.3145 7.17941 17.3145 6.40504C17.3145 5.63066 17.9429 5.00793 18.7173 5.00793C19.4917 5.00793 20.12 5.63078 20.12 6.40504Z" fill="#D7E9FF"/>
<path id="Vector_6" d="M53.5479 6.40406C53.5479 7.17878 52.9147 7.8045 52.14 7.8045H37.2939C36.5192 7.8045 35.8934 7.17878 35.8934 6.40406C35.8934 5.62934 36.5192 5.01111 37.2939 5.01111H52.1401C52.9147 5.01111 53.5479 5.62934 53.5479 6.40406Z" fill="#D7E9FF"/>
</g>
<g id="Group_4">
<path id="Vector_7" d="M55.4052 0.304077H3.59486C1.78026 0.304077 0.304108 1.78011 0.304108 3.59483V55.4114C0.304108 57.2224 1.78014 58.6959 3.59486 58.6959H55.4052C57.2198 58.6959 58.6959 57.2225 58.6959 55.4114C58.6959 48.901 58.6959 11.3148 58.6959 3.59483C58.6959 1.78011 57.2199 0.304077 55.4052 0.304077ZM1.52064 3.59483C1.52064 2.45112 2.45139 1.52061 3.59486 1.52061H55.4052C56.5486 1.52061 57.4794 2.45112 57.4794 3.59483V11.295H1.52064V3.59483ZM57.4794 55.4114C57.4794 56.5515 56.5486 57.4793 55.4052 57.4793H3.59486C2.45139 57.4793 1.52064 56.5515 1.52064 55.4114V12.5115H57.4794V55.4114Z" fill="#1A2E35"/>
<path id="Vector_8" d="M8.23511 35.6157C9.41534 35.6157 10.3752 36.5652 10.3752 37.7321V43.0385C10.3752 44.8891 11.8703 46.3949 13.7076 46.3949C14.0438 46.3949 14.3158 46.1226 14.3158 45.7867C14.3158 45.4507 14.0437 45.1784 13.7076 45.1784C12.541 45.1784 11.5918 44.2185 11.5918 43.0385V37.7321C11.5918 36.5979 11.018 35.5941 10.1436 34.9917C11.0043 34.3805 11.568 33.3796 11.568 32.2594V26.9526C11.568 25.7726 12.5172 24.8127 13.6844 24.8127C14.0207 24.8127 14.2926 24.5404 14.2926 24.2045C14.2926 23.8686 14.0206 23.5963 13.6844 23.5963C11.8467 23.5963 10.3515 25.1021 10.3515 26.9526V32.2594C10.3515 33.4206 9.39759 34.3805 8.22566 34.3993C7.42639 34.412 7.43734 35.6157 8.23511 35.6157Z" fill="#1A2E35"/>
<path id="Vector_9" d="M47.4082 37.7321V43.0385C47.4082 44.2185 46.459 45.1784 45.2924 45.1784C44.9562 45.1784 44.6842 45.4507 44.6842 45.7866C44.6842 46.1226 44.9563 46.3949 45.2924 46.3949C47.1296 46.3949 48.6248 44.8891 48.6248 43.0385V37.7321C48.6248 36.5652 49.5847 35.6157 50.7649 35.6157C51.5636 35.6157 51.5726 34.412 50.7743 34.3992C49.6024 34.3805 48.6485 33.4206 48.6485 32.2593V26.9525C48.6485 25.102 47.1534 23.5962 45.3156 23.5962C44.9793 23.5962 44.7074 23.8685 44.7074 24.2044C44.7074 24.5403 44.9794 24.8126 45.3156 24.8126C46.4828 24.8126 47.432 25.7725 47.432 26.9525V32.2593C47.432 33.3796 47.9957 34.3804 48.8564 34.9916C47.9821 35.594 47.4082 36.5979 47.4082 37.7321Z" fill="#1A2E35"/>
<path id="Vector_10" d="M25.4163 45.5698C25.7296 45.6915 26.0816 45.535 26.2028 45.2217L33.9318 25.2078C34.053 24.8945 33.8968 24.5422 33.5837 24.4213C33.2718 24.3004 32.9184 24.4563 32.7972 24.7694L25.0682 44.7833C24.9471 45.0967 25.1032 45.4489 25.4163 45.5698Z" fill="#1A2E35"/>
<path id="Vector_11" d="M41.7054 35.0048L34.6934 39.7437C34.4147 39.932 34.3417 40.3101 34.53 40.5884C34.7186 40.8685 35.0983 40.9385 35.3741 40.7518L43.1304 35.5098C43.4891 35.2674 43.4851 34.7427 43.1315 34.5024L35.3752 29.2402C35.0984 29.0519 34.7194 29.1241 34.5306 29.4021C34.3417 29.6801 34.4142 30.0585 34.6921 30.247L41.7054 35.0048Z" fill="#1A2E35"/>
<path id="Vector_12" d="M15.8673 35.5082L23.5506 40.7502C23.8269 40.9394 24.2066 40.8679 24.3958 40.5903C24.5852 40.313 24.5135 39.9345 24.236 39.7451L17.288 35.0047L24.2371 30.2453C24.5139 30.0555 24.5846 29.6768 24.3951 29.3997C24.2051 29.1226 23.8278 29.0519 23.5493 29.2414L15.866 34.5035C15.7003 34.6171 15.6017 34.8053 15.6017 35.0061C15.6017 35.2068 15.7016 35.395 15.8673 35.5082Z" fill="#1A2E35"/>
<path id="Vector_13" d="M6.85473 4.39966C5.74629 4.39966 4.84412 5.29929 4.84412 6.40497C4.84412 7.51398 5.7464 8.41592 6.85473 8.41592C7.96374 8.41592 8.86603 7.51398 8.86603 6.40497C8.86591 5.29929 7.96363 4.39966 6.85473 4.39966ZM6.85473 7.19951C6.41695 7.19951 6.06053 6.84309 6.06053 6.40508C6.06053 5.96996 6.41695 5.6163 6.85473 5.6163C7.29308 5.6163 7.6495 5.97007 7.6495 6.40508C7.64938 6.84309 7.29308 7.19951 6.85473 7.19951Z" fill="#1A2E35"/>
<path id="Vector_14" d="M12.7863 4.39966C11.6773 4.39966 10.775 5.29929 10.775 6.40497C10.775 7.51398 11.6773 8.41592 12.7863 8.41592C13.8947 8.41592 14.7969 7.51398 14.7969 6.40497C14.7969 5.29929 13.8946 4.39966 12.7863 4.39966ZM12.7863 7.19951C12.3479 7.19951 11.9915 6.84309 11.9915 6.40508C11.9915 5.96996 12.3479 5.6163 12.7863 5.6163C13.2241 5.6163 13.5805 5.97007 13.5805 6.40508C13.5805 6.84309 13.2241 7.19951 12.7863 7.19951Z" fill="#1A2E35"/>
<path id="Vector_15" d="M18.7173 4.39966C17.6083 4.39966 16.706 5.29929 16.706 6.40497C16.706 7.51398 17.6083 8.41592 18.7173 8.41592C19.8257 8.41592 20.7279 7.51398 20.7279 6.40497C20.7279 5.29929 19.8256 4.39966 18.7173 4.39966ZM18.7173 7.19951C18.2789 7.19951 17.9225 6.84309 17.9225 6.40508C17.9225 5.96996 18.2789 5.6163 18.7173 5.6163C19.1551 5.6163 19.5115 5.97007 19.5115 6.40508C19.5115 6.84309 19.1551 7.19951 18.7173 7.19951Z" fill="#1A2E35"/>
<path id="Vector_16" d="M52.14 4.40295H37.2938C36.186 4.40295 35.2849 5.30075 35.2849 6.40411C35.2849 7.51186 36.186 8.413 37.2938 8.413H52.14C53.2513 8.413 54.156 7.51186 54.156 6.40411C54.156 5.30075 53.2513 4.40295 52.14 4.40295ZM52.14 7.19647H37.2938C36.8566 7.19647 36.5014 6.84097 36.5014 6.40411C36.5014 5.96426 36.8495 5.61948 37.2938 5.61948H52.14C52.5808 5.61948 52.9395 5.97141 52.9395 6.40411C52.9395 6.84097 52.5808 7.19647 52.14 7.19647Z" fill="#1A2E35"/>
</g>
</g>
</g>
</g>
</g>
<defs>
<clipPath id="clip0_1_821">
<rect width="59" height="59" fill="white"/>
</clipPath>
</defs>
</svg>
