<svg width="69" height="59" viewBox="0 0 69 59" fill="none" xmlns="http://www.w3.org/2000/svg">
<g id="Group 1182">
<path id="Vector" d="M68.1784 3.5837V38.423H1.45795V3.5837C1.45795 1.9998 2.72844 0.716919 4.29707 0.716919H65.3393C66.9079 0.716783 68.1784 1.9998 68.1784 3.5837Z" fill="white"/>
<path id="Vector_2" d="M1.45795 38.424V44.8278C1.45795 46.4111 2.72912 47.6945 4.29707 47.6945H65.3393C66.9073 47.6945 68.1784 46.411 68.1784 44.8278V38.424H1.45795Z" fill="#38BFF2"/>
<path id="Vector_3" d="M27.3725 47.6945H42.2637V54.4407H27.3725V47.6945Z" fill="#D7E9FF"/>
<path id="Vector_4" d="M48.233 55.2753L50.0078 57.0583C50.4567 57.5092 50.1404 58.2831 49.5072 58.2831H20.1289C19.4957 58.2831 19.1794 57.5092 19.6283 57.0583L21.4031 55.2753C21.935 54.7409 22.655 54.4408 23.4055 54.4408H46.2305C46.9811 54.4408 47.7011 54.7409 48.233 55.2753Z" fill="#38BFF2"/>
<path id="Vector_5" d="M34.8182 44.4855C35.5983 44.4855 36.2307 43.8469 36.2307 43.0592C36.2307 42.2715 35.5983 41.6329 34.8182 41.6329C34.0381 41.6329 33.4057 42.2715 33.4057 43.0592C33.4057 43.8469 34.0381 44.4855 34.8182 44.4855Z" fill="#D7E9FF"/>
<path id="Vector_6" d="M68.8884 3.58358C68.8884 1.60767 67.2962 0 65.3394 0H4.29717C2.34032 0 0.748169 1.60767 0.748169 3.58358V44.8281C0.748169 46.804 2.34032 48.4116 4.29717 48.4116H26.6626V53.724H23.4054C22.4606 53.724 21.572 54.095 20.9032 54.7676L19.128 56.5503C18.2323 57.4502 18.8643 59 20.1289 59H49.5076C50.7716 59 51.4049 57.4509 50.5085 56.5503L48.7334 54.7676C48.0645 54.0943 47.1759 53.724 46.2311 53.724H42.9739V48.4116H65.3394C67.2962 48.4116 68.8884 46.804 68.8884 44.8281C68.8884 30.1774 68.8884 19.2886 68.8884 3.58358ZM2.1678 3.58358C2.1678 2.39793 3.12295 1.43346 4.29717 1.43346H65.3394C66.5136 1.43346 67.4687 2.39793 67.4687 3.58358V37.7064H2.1678V3.58358ZM47.7318 55.783C47.7325 55.7837 47.7325 55.7837 47.7325 55.7837L49.5076 57.5664H20.1289L21.9047 55.783C22.3061 55.3799 22.839 55.1573 23.4054 55.1573H46.2311C46.7974 55.1573 47.3304 55.3799 47.7318 55.783ZM41.5544 53.7239H28.0821V48.4115H41.5544V53.7239ZM67.4687 44.8281C67.4687 46.0137 66.5136 46.9782 65.3394 46.9782C44.9804 46.9782 24.6076 46.9782 4.29717 46.9782C3.12295 46.9782 2.1678 46.0137 2.1678 44.8281V39.1405H67.4687V44.8281Z" fill="#1A2E35"/>
<path id="Vector_7" d="M34.8181 45.2025C35.9882 45.2025 36.9406 44.2409 36.9406 43.0594C36.9406 41.878 35.9883 40.9163 34.8181 40.9163C33.6481 40.9163 32.6956 41.8779 32.6956 43.0594C32.6956 44.2409 33.6481 45.2025 34.8181 45.2025ZM34.8181 42.3497C35.2055 42.3497 35.521 42.6681 35.521 43.0594C35.521 43.4506 35.2057 43.7692 34.8181 43.7692C34.4306 43.7692 34.1152 43.4508 34.1152 43.0594C34.1152 42.6681 34.4307 42.3497 34.8181 42.3497Z" fill="#1A2E35"/>
<path id="Vector_8" d="M55.5386 8.44788H7.98794C7.59555 8.44788 7.2782 8.76846 7.2782 9.16454C7.2782 9.56062 7.59569 9.8812 7.98794 9.8812H55.5386C55.931 9.8812 56.2483 9.56062 56.2483 9.16454C56.2483 8.76846 55.9308 8.44788 55.5386 8.44788Z" fill="#1A2E35"/>
<path id="Vector_9" d="M55.5386 13.3438H7.98794C7.59555 13.3438 7.2782 13.6643 7.2782 14.0604C7.2782 14.4565 7.59569 14.7771 7.98794 14.7771H55.5386C55.931 14.7771 56.2483 14.4565 56.2483 14.0604C56.2483 13.6643 55.9308 13.3438 55.5386 13.3438Z" fill="#1A2E35"/>
<path id="Vector_10" d="M45.7029 18.2395H7.98794C7.59555 18.2395 7.2782 18.5601 7.2782 18.9562C7.2782 19.3522 7.59569 19.6728 7.98794 19.6728H45.7029C46.0953 19.6728 46.4126 19.3522 46.4126 18.9562C46.4126 18.5601 46.0951 18.2395 45.7029 18.2395Z" fill="#1A2E35"/>
<path id="Vector_11" d="M35.8672 23.1353H7.98794C7.59555 23.1353 7.2782 23.4558 7.2782 23.8519C7.2782 24.248 7.59569 24.5686 7.98794 24.5686H35.8672C36.2596 24.5686 36.5769 24.248 36.5769 23.8519C36.5769 23.4558 36.2594 23.1353 35.8672 23.1353Z" fill="#1A2E35"/>
<path id="Vector_12" d="M26.0315 28.0312H7.98794C7.59555 28.0312 7.2782 28.3518 7.2782 28.7479C7.2782 29.144 7.59569 29.4646 7.98794 29.4646H26.0315C26.4239 29.4646 26.7412 29.144 26.7412 28.7479C26.7412 28.3518 26.4237 28.0312 26.0315 28.0312Z" fill="#1A2E35"/>
</g>
</svg>
